<svg t="1683878332035" class="icon" viewBox="0 0 1030 1024" version="1.1"
  xmlns="http://www.w3.org/2000/svg" p-id="8568" width="200" height="200">
  <path
    d="M131.851715 94.464536m79.35464 0l740.254062 0q79.35464 0 79.35464 79.35464l0 740.254062q0 79.35464-79.35464 79.35464l-740.254062 0q-79.35464 0-79.35464-79.35464l0-740.254062q0-79.35464 79.35464-79.35464Z"
    fill="#BCD1FE" p-id="8569"></path>
  <path
    d="M973.435703 455.380671H606.6709a56.563963 56.563963 0 0 0-56.423031 56.423031V967.395771a56.563963 56.563963 0 0 0 56.423031 56.372698h366.956067a56.563963 56.563963 0 0 0 56.433098-56.372698V511.803702c0-31.055317-25.558979-56.423031-56.614296-56.423031zM987.075883 967.395771A13.821378 13.821378 0 0 1 973.435703 981.015817H606.6709A13.821378 13.821378 0 0 1 593.040787 967.395771V511.803702a13.821378 13.821378 0 0 1 13.630113-13.630113h366.956067a13.821378 13.821378 0 0 1 13.64018 13.630113V967.395771zM414.67153 638.672473H66.650649A66.872113 66.872113 0 0 0 0 705.323123V957.329218a66.751315 66.751315 0 0 0 66.650649 66.650649h348.020881A66.872113 66.872113 0 0 0 481.322179 957.329218V705.323123a66.872113 66.872113 0 0 0-66.650649-66.65065z m23.666466 318.485613a23.918131 23.918131 0 0 1-23.666466 23.666467H66.650649a23.918131 23.918131 0 0 1-23.666466-23.666467V705.323123a23.928197 23.928197 0 0 1 23.666466-23.666467h348.020881a23.928197 23.928197 0 0 1 23.666466 23.666467zM963.973143 0H616.143527a66.872113 66.872113 0 0 0-66.650649 66.650649v252.026228a66.872113 66.872113 0 0 0 66.650649 66.65065h348.02088a66.872113 66.872113 0 0 0 66.65065-66.65065V66.650649C1030.623792 30.109061 1000.705996 0 963.973143 0z m23.666467 318.676877a23.253738 23.253738 0 0 1-7.046588 16.660146 23.636267 23.636267 0 0 1-16.660145 7.046587H616.143527a23.928197 23.928197 0 0 1-23.666467-23.666466V66.650649a23.928197 23.928197 0 0 1 23.666467-23.666466h348.02088a23.928197 23.928197 0 0 1 23.666467 23.666466v252.026228zM57.943081 568.991791h366.956067a56.563963 56.563963 0 0 0 56.423031-56.423031V56.986758A56.563963 56.563963 0 0 0 424.899148 0.563727H57.943081A56.563963 56.563963 0 0 0 1.509983 56.986758v455.582002c-0.191265 31.055317 25.367714 56.423031 56.423031 56.423031zM44.292834 56.986758a13.821378 13.821378 0 0 1 13.650247-13.620046h366.956067a13.821378 13.821378 0 0 1 13.630113 13.630113v455.571935a13.569714 13.569714 0 0 1-13.438849 13.438849H57.943081A13.821378 13.821378 0 0 1 44.292834 512.387562z m0 0"
    fill="#3C7BFE" p-id="8570"></path>
</svg>